<mxfile host="app.diagrams.net" modified="2021-05-22T20:20:57.540Z" agent="5.0 (X11; Linux x86_64) AppleWebKit/537.36 (KHTML, like Gecko) Chrome/86.0.4240.111 Safari/537.36" etag="fECw1A9KVlvd6kYy1_7q" version="14.7.0" type="github">
  <diagram id="T8iLKo73KL9swprW0D0H" name="Page-1">
    <mxGraphModel dx="2062" dy="1169" grid="1" gridSize="10" guides="1" tooltips="1" connect="1" arrows="1" fold="1" page="1" pageScale="1" pageWidth="827" pageHeight="1169" math="0" shadow="0">
      <root>
        <mxCell id="0" />
        <mxCell id="1" parent="0" />
        <mxCell id="P2RT4sU_E_n37xeDDunJ-6" value="" style="edgeStyle=orthogonalEdgeStyle;rounded=0;orthogonalLoop=1;jettySize=auto;html=1;" edge="1" parent="1" source="P2RT4sU_E_n37xeDDunJ-1" target="P2RT4sU_E_n37xeDDunJ-5">
          <mxGeometry relative="1" as="geometry" />
        </mxCell>
        <mxCell id="P2RT4sU_E_n37xeDDunJ-1" value="RUZ" style="rounded=0;whiteSpace=wrap;html=1;" vertex="1" parent="1">
          <mxGeometry x="360" y="20" width="120" height="60" as="geometry" />
        </mxCell>
        <mxCell id="P2RT4sU_E_n37xeDDunJ-2" value="Goole Calendar&lt;br&gt;" style="rounded=0;whiteSpace=wrap;html=1;" vertex="1" parent="1">
          <mxGeometry x="70" y="610" width="120" height="60" as="geometry" />
        </mxCell>
        <mxCell id="P2RT4sU_E_n37xeDDunJ-3" value="Erudite" style="rounded=0;whiteSpace=wrap;html=1;" vertex="1" parent="1">
          <mxGeometry x="660" y="610" width="120" height="60" as="geometry" />
        </mxCell>
        <mxCell id="P2RT4sU_E_n37xeDDunJ-4" value="Lessons in room per time period" style="rounded=1;whiteSpace=wrap;html=1;" vertex="1" parent="1">
          <mxGeometry x="360" y="310" width="120" height="60" as="geometry" />
        </mxCell>
        <mxCell id="P2RT4sU_E_n37xeDDunJ-7" value="" style="edgeStyle=orthogonalEdgeStyle;rounded=0;orthogonalLoop=1;jettySize=auto;html=1;" edge="1" parent="1" source="P2RT4sU_E_n37xeDDunJ-5" target="P2RT4sU_E_n37xeDDunJ-4">
          <mxGeometry relative="1" as="geometry" />
        </mxCell>
        <mxCell id="P2RT4sU_E_n37xeDDunJ-5" value="Rooms" style="rounded=1;whiteSpace=wrap;html=1;" vertex="1" parent="1">
          <mxGeometry x="360" y="150" width="120" height="60" as="geometry" />
        </mxCell>
        <mxCell id="P2RT4sU_E_n37xeDDunJ-8" value="For each room" style="text;html=1;align=center;verticalAlign=middle;resizable=0;points=[];autosize=1;strokeColor=none;" vertex="1" parent="1">
          <mxGeometry x="430" y="250" width="90" height="20" as="geometry" />
        </mxCell>
        <mxCell id="P2RT4sU_E_n37xeDDunJ-10" value="" style="edgeStyle=orthogonalEdgeStyle;rounded=0;orthogonalLoop=1;jettySize=auto;html=1;" edge="1" parent="1" source="P2RT4sU_E_n37xeDDunJ-3" target="P2RT4sU_E_n37xeDDunJ-9">
          <mxGeometry relative="1" as="geometry" />
        </mxCell>
        <mxCell id="P2RT4sU_E_n37xeDDunJ-9" value="Lessons in room per time period" style="rounded=1;whiteSpace=wrap;html=1;" vertex="1" parent="1">
          <mxGeometry x="580" y="440" width="120" height="60" as="geometry" />
        </mxCell>
        <mxCell id="P2RT4sU_E_n37xeDDunJ-11" value="" style="shape=flexArrow;endArrow=classic;startArrow=classic;html=1;entryX=1;entryY=1;entryDx=0;entryDy=0;exitX=0;exitY=0;exitDx=0;exitDy=0;" edge="1" parent="1" source="P2RT4sU_E_n37xeDDunJ-9" target="P2RT4sU_E_n37xeDDunJ-4">
          <mxGeometry width="100" height="100" relative="1" as="geometry">
            <mxPoint x="360" y="630" as="sourcePoint" />
            <mxPoint x="460" y="530" as="targetPoint" />
          </mxGeometry>
        </mxCell>
        <mxCell id="P2RT4sU_E_n37xeDDunJ-12" value="Synchronyse" style="text;html=1;align=center;verticalAlign=middle;resizable=0;points=[];autosize=1;strokeColor=none;" vertex="1" parent="1">
          <mxGeometry x="520" y="370" width="80" height="20" as="geometry" />
        </mxCell>
      </root>
    </mxGraphModel>
  </diagram>
</mxfile>
